<?xml version="1.0" encoding="UTF-8" standalone="no"?>
<svg
   id="Layer_1"
   data-name="Layer 1"
   viewBox="0 0 512 511.99999"
   version="1.1"
   sodipodi:docname="simple.svg"
   inkscape:version="1.4.3 (0d15f75042, 2025-12-25)"
   width="512"
   height="512"
   inkscape:export-filename="simple.png"
   inkscape:export-xdpi="96"
   inkscape:export-ydpi="96"
   xmlns:inkscape="http://www.inkscape.org/namespaces/inkscape"
   xmlns:sodipodi="http://sodipodi.sourceforge.net/DTD/sodipodi-0.dtd"
   xmlns="http://www.w3.org/2000/svg"
   xmlns:svg="http://www.w3.org/2000/svg">
  <sodipodi:namedview
     id="namedview7"
     pagecolor="#ffffff"
     bordercolor="#000000"
     borderopacity="0.25"
     inkscape:showpageshadow="2"
     inkscape:pageopacity="0.0"
     inkscape:pagecheckerboard="0"
     inkscape:deskcolor="#d1d1d1"
     inkscape:zoom="1.6062423"
     inkscape:cx="318.44511"
     inkscape:cy="235.95444"
     inkscape:window-width="2560"
     inkscape:window-height="1388"
     inkscape:window-x="0"
     inkscape:window-y="0"
     inkscape:window-maximized="1"
     inkscape:current-layer="Layer_1" />
  <defs
     id="defs1">
    <style
       id="style1">
      .cls-1 {
        fill: none;
        stroke: red;
        stroke-linecap: round;
        stroke-miterlimit: 10;
        stroke-width: 26px;
      }

      .cls-2 {
        fill: red;
      }
    </style>
  </defs>
  <g
     id="g2"
     inkscape:export-filename="ytrssil.png"
     inkscape:export-xdpi="155.82001"
     inkscape:export-ydpi="155.82001"
     transform="matrix(1.6720654,0,0,1.6720654,-353.9193,-185.64857)">
    <path
       class="cls-1"
       d="m 276.78,344.19 c -24.65,-23.33 -40.02,-56.36 -40.02,-92.97 0,-70.7 57.31,-128.01 128.01,-128.01 70.7,0 128.01,57.31 128.01,128.01 0,36.63 -15.38,69.66 -40.04,92.99"
       id="path1"
       style="stroke:#e62e05;stroke-width:20;stroke-dasharray:none;stroke-opacity:1" />
    <path
       class="cls-1"
       d="m 295.91,308.67 c -13,-15.56 -20.82,-35.6 -20.82,-57.46 0,-49.53 40.15,-89.68 89.68,-89.68 49.53,0 89.68,40.15 89.68,89.68 0,21.9 -7.85,41.97 -20.89,57.55"
       id="path2"
       style="stroke:#e62e05;stroke-width:20;stroke-dasharray:none;stroke-opacity:1" />
  </g>
  <path
     class="cls-2"
     d="M 195.37091,302.67813 V 159.01427 c 0,-7.07284 7.64134,-11.50381 13.77781,-7.97576 l 125.22098,71.83193 c 6.16993,3.54479 6.16993,12.42345 0,15.96823 L 209.14872,310.6706 c -6.13647,3.52806 -13.77781,-0.90292 -13.77781,-7.97575 z"
     id="path3"
     style="fill:#e62e05;fill-opacity:1;stroke-width:1.67207" />
  <path
     style="fill:none;fill-rule:nonzero;stroke:#e62e05;stroke-width:33.4413;stroke-linecap:round;stroke-dasharray:none;stroke-opacity:1;paint-order:normal"
     d="M 83.285086,455.15168 C 139.0537,453.86775 176.63966,406.13031 200.82758,345.74308"
     id="path8"
     sodipodi:nodetypes="cc" />
  <path
     style="fill:none;fill-rule:nonzero;stroke:#e62e05;stroke-width:33.4413;stroke-linecap:round;stroke-dasharray:none;stroke-opacity:1;paint-order:normal"
     d="m 162.19098,486.8027 c 58.57951,-0.8375 87.62198,-91.61576 93.04681,-127.49385 m 1.10411,-0.36803 c 4.15511,43.80715 44.87697,129.09956 93.44641,127.49383"
     id="path12"
     sodipodi:nodetypes="cccc" />
  <path
     style="fill:none;fill-rule:nonzero;stroke:#e62e05;stroke-width:33.4413;stroke-linecap:round;stroke-dasharray:none;stroke-opacity:1;paint-order:normal"
     d="m 310.96139,345.10717 c 17.63523,42.73521 55.53344,108.00736 116.85871,109.9552"
     id="path13"
     sodipodi:nodetypes="cc" />
  <path
     style="fill:none;fill-rule:nonzero;stroke:#e62e05;stroke-width:33.4413;stroke-linecap:round;stroke-dasharray:none;stroke-opacity:1;paint-order:normal"
     d="m 183.77321,387.88219 c 10.15082,61.55048 36.48534,98.62688 68.93522,103.75123"
     id="path14"
     sodipodi:nodetypes="cc" />
  <path
     style="fill:none;fill-rule:nonzero;stroke:#e62e05;stroke-width:33.4413;stroke-linecap:round;stroke-dasharray:none;stroke-opacity:1;paint-order:normal"
     d="m 331.30553,388.09366 c -8.10055,42.23137 -11.71102,49.88033 -28.10647,71.56734"
     id="path15"
     sodipodi:nodetypes="cc"
     inkscape:export-filename="ytrssil.png"
     inkscape:export-xdpi="159.9203"
     inkscape:export-ydpi="159.9203" />
</svg>
