<?xml version="1.0" encoding="UTF-8" standalone="no"?>
<svg
   id="Layer_1"
   data-name="Layer 1"
   viewBox="0 0 511.99998 511.99999"
   version="1.1"
   sodipodi:docname="ytrssil.svg"
   inkscape:version="1.4.3 (0d15f75042, 2025-12-25)"
   width="512"
   height="512"
   inkscape:export-filename="ytrssil.png"
   inkscape:export-xdpi="96"
   inkscape:export-ydpi="96"
   xmlns:inkscape="http://www.inkscape.org/namespaces/inkscape"
   xmlns:sodipodi="http://sodipodi.sourceforge.net/DTD/sodipodi-0.dtd"
   xmlns="http://www.w3.org/2000/svg"
   xmlns:svg="http://www.w3.org/2000/svg">
  <sodipodi:namedview
     id="namedview10"
     pagecolor="#ffffff"
     bordercolor="#000000"
     borderopacity="0.25"
     inkscape:showpageshadow="2"
     inkscape:pageopacity="0.0"
     inkscape:pagecheckerboard="0"
     inkscape:deskcolor="#d1d1d1"
     showgrid="false"
     inkscape:zoom="2.0632196"
     inkscape:cx="268.27004"
     inkscape:cy="253.972"
     inkscape:window-width="2560"
     inkscape:window-height="1388"
     inkscape:window-x="0"
     inkscape:window-y="0"
     inkscape:window-maximized="1"
     inkscape:current-layer="Layer_1" />
  <defs
     id="defs1">
    <style
       id="style1">
      .cls-1 {
        stroke-width: 32px;
      }

      .cls-1, .cls-2 {
        fill: none;
        stroke: red;
        stroke-linecap: round;
        stroke-miterlimit: 10;
      }

      .cls-2 {
        stroke-width: 26px;
      }

      .cls-3 {
        fill: red;
      }
    </style>
  </defs>
  <g
     id="g3"
     transform="matrix(1.2061529,0,0,1.2061529,-182.18331,-74.863584)">
    <path
       class="cls-2"
       d="m 479.74,379.9 9.62,-8.95 c 25.09,-29.13 40.26,-67.04 40.26,-108.5 0,-91.86 -74.47,-166.33 -166.33,-166.33 -91.86,0 -166.33,74.47 -166.33,166.33 0,41.46 15.17,79.37 40.26,108.5 l 10.87,10.32"
       id="path1"
       style="stroke:#e62900;stroke-width:20;stroke-dasharray:none;stroke-opacity:1" />
    <path
       class="cls-2"
       d="m 275.3,355.43 c -24.65,-23.33 -40.02,-56.36 -40.02,-92.97 0,-70.7 57.31,-128.01 128.01,-128.01 70.7,0 128.01,57.31 128.01,128.01 0,36.63 -15.38,69.66 -40.04,92.99"
       id="path2"
       style="stroke:#e62900;stroke-width:20;stroke-dasharray:none;stroke-opacity:1" />
    <path
       class="cls-2"
       d="m 294.42,319.92 c -13,-15.56 -20.82,-35.6 -20.82,-57.46 0,-49.53 40.15,-89.68 89.68,-89.68 49.53,0 89.68,40.15 89.68,89.68 0,21.9 -7.85,41.97 -20.89,57.55"
       id="path3"
       style="stroke:#e62900;stroke-width:20;stroke-dasharray:none;stroke-opacity:1" />
  </g>
  <g
     id="g5"
     transform="matrix(1.2061529,0,0,1.2061529,-182.18331,-74.863584)">
    <path
       style="fill:none;stroke:#e62900;stroke-width:20;stroke-linecap:round;stroke-dasharray:none;stroke-opacity:1"
       d="m 234.34248,418.27831 c 44.34816,0.24234 76.57935,-42.40944 91.11973,-80.69912"
       id="path11"
       sodipodi:nodetypes="cc" />
    <path
       style="fill:none;stroke:#e62900;stroke-width:20;stroke-linecap:round;stroke-dasharray:none;stroke-opacity:1"
       d="m 312.13352,366.65996 c -2.90807,42.65177 35.13926,87.48463 55.49579,85.78824"
       id="path12"
       sodipodi:nodetypes="cc" />
    <path
       style="fill:none;stroke:#e62900;stroke-width:20;stroke-linecap:round;stroke-dasharray:none;stroke-opacity:1"
       d="m 290.80763,443.23929 c 42.16711,2.4234 71.00553,-68.58213 72.21723,-94.51248"
       id="path13"
       sodipodi:nodetypes="cc" />
    <path
       style="fill:none;stroke:#e62900;stroke-width:20;stroke-linecap:round;stroke-dasharray:none;stroke-opacity:1"
       d="m 435.24209,442.99695 c -45.80221,0 -70.27851,-65.91639 -71.73255,-94.51247"
       id="path14"
       sodipodi:nodetypes="cc" />
    <path
       style="fill:none;stroke:#e62900;stroke-width:20;stroke-linecap:round;stroke-dasharray:none;stroke-opacity:1"
       d="m 398.64879,423.12511 c 10.97265,-10.97265 17.67901,-34.40046 17.93314,-52.58772"
       id="path15"
       sodipodi:nodetypes="cc" />
    <path
       style="fill:none;stroke:#e62900;stroke-width:20;stroke-linecap:round;stroke-dasharray:none;stroke-opacity:1"
       d="m 401.07219,337.09451 c 11.63231,33.44288 46.52922,81.66848 90.63504,81.1838"
       id="path16"
       sodipodi:nodetypes="cc" />
  </g>
  <path
     class="cls-3"
     d="M 212.26489,290.95055 V 187.31789 c 0,-5.10203 5.51212,-8.29834 9.93871,-5.75336 l 90.32879,51.81634 c 4.4507,2.55705 4.4507,8.96172 0,11.51876 l -90.32879,51.81633 c -4.42659,2.54498 -9.93871,-0.65132 -9.93871,-5.75334 z"
     id="path6"
     style="fill:#e62900;fill-opacity:1;stroke-width:1.20615"
     inkscape:export-filename="complex.png"
     inkscape:export-xdpi="130.59"
     inkscape:export-ydpi="130.59" />
</svg>
